<svg width="40" height="40" viewBox="0 0 40 40" fill="none" xmlns="http://www.w3.org/2000/svg">
<path d="M17.9551 11.9632C18.1546 11.9632 18.3541 11.9632 18.6534 11.9632C23.4414 11.9632 27.4314 15.8346 27.4314 20.6985C27.4314 24.2721 25.2369 27.4485 22.0449 28.739C21.8454 28.739 21.7456 28.739 21.5461 28.739C16.7581 28.739 12.7681 24.8677 12.7681 20.0037C12.7681 16.4302 14.8628 13.3529 17.9551 11.9632L-9.58918e-07 12.0625C-4.2956e-07 24.1728 9.87531 34 22.0449 34L22.0449 28.9375L40 28.9375C40 16.8272 30.1247 7 17.9551 7L17.9551 11.9632Z" fill="white"/>
</svg>
